<svg width="1200" height="1200" xmlns="http://www.w3.org/2000/svg" xmlns:xlink="http://www.w3.org/1999/xlink" version="1.1"><g transform="scale(71.16444004058488) translate(0.7308800816535959, -4.098217487335205)">            <linearGradient id="SvgjsLinearGradient1457"><stop id="SvgjsStop1458" stop-color="#905e26" offset="0"/><stop id="SvgjsStop1459" stop-color="#f5ec9b" offset="0.5"/><stop id="SvgjsStop1460" stop-color="#905e26" offset="1"/></linearGradient>            <g fill="#cbb26a"><linearGradient id="SvgjsLinearGradient1457"><stop id="SvgjsStop1458" stop-color="#905e26" offset="0"/><stop id="SvgjsStop1459" stop-color="#f5ec9b" offset="0.5"/><stop id="SvgjsStop1460" stop-color="#905e26" offset="1"/></linearGradient><path d="M11.836 20 l0 -2.5391 q-0.60546875 1.064453125 -1.181640625 1.5625 t-1.3037 0.80078 t-1.9482 0.29297 q-0.60546875 -0.009765625 -1.2109375 -0.1416015625 t-1.1719 -0.37109 t-1.1084 -0.57617 t-0.98145 -0.77637 q-1.083984375 -1.09375 -1.684570313 -2.534179688 t-0.60059 -3.1396 q0 -1.044921875 0.25390625 -2.021484375 t0.71289 -1.8262 t1.1084 -1.5479 t1.4453 -1.1963 t1.7139 -0.77148 t1.9238 -0.27344 q1.15234375 0 2.001953125 0.3076171875 t1.8262 1.1475 l2.1875 0 l0 3.3008 l-3.0176 0 q-0.44921875 -0.693359375 -0.8447265625 -1.005859375 t-0.85938 -0.51758 t-1.2939 -0.20508 q-0.8203125 0 -1.5234375 0.37109375 t-1.2158 1.001 t-0.80566 1.4844 t-0.29297 1.7529 q0 0.888671875 0.263671875 1.689453125 t0.80078 1.4404 t1.25 0.98145 t1.5234 0.3418 q1.03515625 0 1.806640625 -0.60546875 t1.1133 -1.6504 l-2.8223 0 l0 -2.6758 l6.8555 0 l0 7.9004 l-2.9199 0 z"/></g>        </g></svg>